<?xml version="1.0" encoding="utf-8"?>
<!-- Generator: Adobe Illustrator 16.0.0, SVG Export Plug-In . SVG Version: 6.00 Build 0)  -->
<!DOCTYPE svg PUBLIC "-//W3C//DTD SVG 1.1//EN" "http://www.w3.org/Graphics/SVG/1.1/DTD/svg11.dtd">
<svg version="1.1" xmlns="http://www.w3.org/2000/svg" xmlns:xlink="http://www.w3.org/1999/xlink" x="0px" y="0px" width="215px"
	 height="88px" viewBox="0 0 215 88" enable-background="new 0 0 215 88" xml:space="preserve">
<g id="main-box">
</g>
<g id="cross_1_">
	<path fill="#1D74CB" d="M11-221.131c0,1.177-0.83,2.131-1.856,2.131h-192.817c-1.025,0-2.326-0.954-2.326-2.131v-62.461
		c0-1.177,1.301-2.408,2.326-2.408H9.144c1.026,0,1.856,1.231,1.856,2.408V-221.131z"/>
	<g>
		<g>
			<path fill="#FFFFFF" d="M30.104,35.68v5.015h-4.299v9.582c0,1.941,0.041,3.07,0.123,3.392s0.269,0.588,0.561,0.795
				c0.29,0.21,0.645,0.314,1.063,0.314c0.582,0,1.426-0.202,2.531-0.605l0.537,4.881c-1.464,0.627-3.121,0.94-4.972,0.94
				c-1.134,0-2.157-0.19-3.066-0.57c-0.911-0.382-1.579-0.874-2.003-1.478c-0.427-0.605-0.721-1.423-0.885-2.451
				c-0.136-0.732-0.202-2.21-0.202-4.435V40.694h-2.889V35.68h2.889v-4.724l6.313-3.671v8.395H30.104z"/>
			<path fill="#FFFFFF" d="M48.239,51.889l6.268,1.052c-0.806,2.3-2.078,4.05-3.816,5.25c-1.739,1.203-3.916,1.803-6.526,1.803
				c-4.135,0-7.194-1.35-9.179-4.052c-1.567-2.164-2.351-4.896-2.351-8.195c0-3.94,1.028-7.026,3.089-9.257
				c2.059-2.231,4.664-3.347,7.813-3.347c3.538,0,6.327,1.168,8.373,3.504c2.044,2.336,3.023,5.914,2.934,10.734H39.083
				c0.043,1.865,0.551,3.317,1.521,4.355c0.971,1.037,2.18,1.556,3.626,1.556c0.985,0,1.813-0.269,2.485-0.807
				C47.388,53.948,47.895,53.084,48.239,51.889z M48.597,45.53c-0.045-1.82-0.516-3.204-1.411-4.152s-1.983-1.423-3.267-1.423
				c-1.375,0-2.508,0.502-3.403,1.501c-0.896,1-1.337,2.357-1.321,4.074H48.597z"/>
			<path fill="#FFFFFF" d="M59.97,59.456V26.635h6.292v32.821H59.97z"/>
			<path fill="#FFFFFF" d="M77.411,42.934l-5.709-1.03c0.641-2.299,1.746-4,3.313-5.104c1.567-1.104,3.896-1.656,6.985-1.656
				c2.806,0,4.895,0.332,6.269,0.996c1.373,0.664,2.34,1.509,2.898,2.529c0.561,1.023,0.842,2.899,0.842,5.632l-0.068,7.343
				c0,2.09,0.102,3.631,0.302,4.623c0.202,0.993,0.578,2.056,1.131,3.19h-6.224c-0.165-0.419-0.366-1.038-0.604-1.859
				c-0.105-0.372-0.18-0.619-0.226-0.738c-1.075,1.046-2.224,1.828-3.446,2.351c-1.225,0.521-2.531,0.784-3.919,0.784
				c-2.448,0-4.376-0.664-5.788-1.992c-1.409-1.328-2.114-3.008-2.114-5.038c0-1.343,0.319-2.54,0.962-3.593
				c0.641-1.052,1.541-1.858,2.698-2.418s2.823-1.048,5.003-1.467c2.94-0.551,4.979-1.066,6.113-1.544v-0.627
				c0-1.21-0.299-2.071-0.896-2.587c-0.598-0.514-1.725-0.772-3.382-0.772c-1.119,0-1.991,0.222-2.618,0.661
				C78.307,41.057,77.799,41.829,77.411,42.934z M85.829,48.038C85.022,48.307,83.746,48.628,82,49
				c-1.746,0.373-2.888,0.739-3.425,1.098c-0.821,0.582-1.232,1.32-1.232,2.216c0,0.882,0.328,1.643,0.985,2.285
				c0.657,0.642,1.491,0.962,2.508,0.962c1.134,0,2.217-0.374,3.245-1.12c0.763-0.566,1.262-1.26,1.501-2.081
				c0.164-0.537,0.247-1.561,0.247-3.067V48.038z"/>
			<path fill="#FFFFFF" d="M104.747,59.456L95.164,35.68h6.605l4.478,12.135l1.298,4.051c0.344-1.028,0.561-1.707,0.65-2.036
				c0.209-0.672,0.433-1.344,0.67-2.015l4.524-12.135h6.47l-9.448,23.776H104.747z"/>
			<path fill="#FFFFFF" d="M123.709,59.456V35.68H130v23.776H123.709z"/>
			<path fill="#FFFFFF" d="M157.181,42.71l-6.202,1.119c-0.21-1.238-0.684-2.173-1.422-2.8c-0.738-0.626-1.698-0.938-2.877-0.938
				c-1.566,0-2.816,0.54-3.75,1.622s-1.398,2.893-1.398,5.43c0,2.82,0.473,4.813,1.421,5.977s2.22,1.748,3.817,1.748
				c1.193,0,2.172-0.341,2.932-1.02c0.764-0.68,1.301-1.847,1.612-3.505l6.179,1.054c-0.641,2.836-1.872,4.978-3.693,6.426
				s-4.261,2.171-7.32,2.171c-3.479,0-6.25-1.097-8.317-3.292c-2.067-2.192-3.101-5.229-3.101-9.111
				c0-3.925,1.037-6.981,3.111-9.167c2.074-2.187,4.881-3.28,8.418-3.28c2.896,0,5.198,0.624,6.908,1.869
				C155.205,38.259,156.434,40.157,157.181,42.71z"/>
			<path fill="#FFFFFF" d="M175.717,51.889l6.269,1.052c-0.806,2.3-2.079,4.05-3.817,5.25c-1.738,1.203-3.914,1.803-6.525,1.803
				c-4.135,0-7.195-1.35-9.18-4.052c-1.566-2.164-2.35-4.896-2.35-8.195c0-3.94,1.028-7.026,3.088-9.257
				c2.06-2.231,4.664-3.347,7.814-3.347c3.537,0,6.327,1.168,8.373,3.504c2.044,2.336,3.023,5.914,2.934,10.734h-15.762
				c0.043,1.865,0.552,3.317,1.522,4.355c0.97,1.037,2.179,1.556,3.626,1.556c0.984,0,1.814-0.269,2.485-0.807
				C174.866,53.948,175.373,53.084,175.717,51.889z M176.075,45.53c-0.045-1.82-0.516-3.204-1.411-4.152s-1.984-1.423-3.268-1.423
				c-1.374,0-2.508,0.502-3.402,1.501c-0.896,1-1.338,2.357-1.322,4.074H176.075z"/>
		</g>
	</g>
	<path fill="#D0D2D3" d="M-151.766,336.105c0.492-0.837,1.116-1.614,1.875-2.301c0.328-0.297,0.671-0.564,1.026-0.809
		c-3.589-4.768-9.186-7.973-15.612-8.297c-1.15-0.057-2.129,0.828-2.188,1.979c-0.058,1.148,0.827,2.129,1.978,2.186
		C-159.281,329.138-154.607,331.961-151.766,336.105z M-144.871,331.412c1.759-0.273,3.572-0.064,5.23,0.622
		c-4.63-8.868-13.701-15.122-24.414-15.665c-1.15-0.059-2.131,0.828-2.188,1.979c-0.058,1.148,0.827,2.129,1.978,2.188
		C-156.147,320.945-149.134,325.184-144.871,331.412z M-165.318,341.357c-2.302-0.116-4.261,1.655-4.377,3.955
		c-0.115,2.301,1.654,4.258,3.955,4.375c2.299,0.117,4.259-1.654,4.375-3.955C-161.25,343.434-163.02,341.476-165.318,341.357z
		 M-153.035,346.156c0.348-6.9-4.963-12.776-11.861-13.127c-1.151-0.058-2.131,0.826-2.189,1.977s0.826,2.131,1.977,2.188
		c4.602,0.233,8.141,4.151,7.908,8.751c-0.059,1.149,0.828,2.129,1.977,2.188C-154.072,348.19-153.094,347.306-153.035,346.156z"/>
	<path fill="#1D74CB" d="M-137.18,335.433c-3.087-3.417-8.361-3.685-11.779-0.597c-3.417,3.088-3.684,8.363-0.596,11.779
		c3.089,3.418,8.363,3.684,11.779,0.597C-134.355,344.123-134.09,338.85-137.18,335.433z M-148.361,343.313l2.538-2.371
		l-2.372-2.539l2.54-2.373l2.372,2.54l2.539-2.373l2.372,2.539l-2.538,2.372l2.371,2.539l-2.538,2.373l-2.373-2.539l-2.539,2.371
		L-148.361,343.313z"/>
	<path fill="#FFFFFF" d="M-383.642,88.754c-3.495-0.21-6.499,2.453-6.709,5.949c-0.21,3.495,2.454,6.498,5.949,6.708
		s6.499-2.454,6.709-5.948C-377.482,91.967-380.146,88.963-383.642,88.754z M-385.513,98.983l0.114-2.638l-2.64-0.114l0.115-2.641
		l2.64,0.116l0.114-2.641l2.639,0.115l-0.114,2.639l2.639,0.115l-0.113,2.639l-2.64-0.114l-0.115,2.639L-385.513,98.983z"/>
	<g>
		<path fill="#D0D2D3" d="M-702.084-107.938c0.431-0.869,0.999-1.689,1.708-2.428c0.306-0.318,0.629-0.609,0.966-0.879
			c-3.915-4.502-9.725-7.304-16.159-7.173c-1.152,0.024-2.065,0.976-2.043,2.127c0.023,1.15,0.977,2.064,2.127,2.042
			C-710.073-114.358-705.211-111.873-702.084-107.938z M-695.539-113.106c1.736-0.397,3.56-0.316,5.263,0.251
			c-5.245-8.52-14.734-14.117-25.46-13.901c-1.151,0.022-2.066,0.977-2.043,2.127s0.976,2.065,2.127,2.042
			C-707.525-122.752-700.229-119.019-695.539-113.106z M-714.167-101.178c-2.236-0.552-4.497,0.814-5.048,3.051
			c-0.553,2.235,0.813,4.494,3.049,5.047s4.496-0.813,5.049-3.05C-710.567-98.365-711.933-100.624-714.167-101.178z
			 M-702.642-97.823c-0.139-6.908-5.852-12.395-12.76-12.256c-1.151,0.023-2.065,0.975-2.043,2.126s0.975,2.066,2.127,2.043
			c4.605-0.093,8.414,3.566,8.506,8.171c0.022,1.151,0.977,2.065,2.127,2.043C-703.532-95.721-702.619-96.673-702.642-97.823z"/>
		<path fill="#FFFFFF" d="M-684.225-101.881c0.247-4.601-3.281-8.527-7.881-8.776c-4.601-0.247-8.527,3.283-8.774,7.881
			c-0.246,4.601,3.282,8.528,7.88,8.776C-688.397-93.754-684.471-97.281-684.225-101.881z M-697.812-103.912l3.469-0.103l-0.1-3.473
			l3.475-0.102l0.101,3.473l3.474-0.102l0.101,3.473l-3.471,0.104l0.102,3.472l-3.474,0.102l-0.104-3.472l-3.471,0.101
			L-697.812-103.912z"/>
	</g>
	<g>
		<g>
			<path fill="#1D74CB" d="M-326.942-83.854v6.11h-5.239v11.678c0,2.365,0.05,3.741,0.15,4.133s0.328,0.717,0.683,0.969
				c0.354,0.256,0.786,0.383,1.296,0.383c0.709,0,1.736-0.246,3.083-0.737l0.655,5.947c-1.784,0.765-3.802,1.146-6.058,1.146
				c-1.381,0-2.628-0.232-3.737-0.695c-1.11-0.465-1.924-1.064-2.441-1.8c-0.52-0.738-0.878-1.734-1.078-2.987
				c-0.166-0.893-0.247-2.693-0.247-5.404v-12.632h-3.52v-6.11h3.52v-5.757l7.694-4.473v10.229H-326.942z"/>
			<path fill="#1D74CB" d="M-304.843-64.101l7.639,1.281c-0.982,2.803-2.533,4.936-4.652,6.397
				c-2.119,1.467-4.771,2.197-7.953,2.197c-5.039,0-8.768-1.645-11.186-4.938c-1.909-2.638-2.864-5.966-2.864-9.987
				c0-4.802,1.254-8.563,3.764-11.28c2.51-2.72,5.684-4.078,9.522-4.078c4.311,0,7.711,1.423,10.204,4.27
				c2.492,2.847,3.685,7.207,3.575,13.081h-19.207c0.053,2.273,0.672,4.043,1.855,5.308c1.182,1.264,2.655,1.896,4.418,1.896
				c1.201,0,2.21-0.328,3.029-0.983C-305.88-61.591-305.263-62.645-304.843-64.101z M-304.407-71.85
				c-0.054-2.218-0.628-3.904-1.72-5.06c-1.091-1.156-2.417-1.734-3.981-1.734c-1.674,0-3.055,0.611-4.146,1.829
				c-1.091,1.219-1.629,2.873-1.611,4.965H-304.407z"/>
			<path fill="#1D74CB" d="M-290.547-54.879v-39.997h7.667v39.997H-290.547z"/>
			<path fill="#1D74CB" d="M-269.293-75.014l-6.958-1.256c0.781-2.801,2.128-4.874,4.037-6.221c1.91-1.345,4.748-2.018,8.513-2.018
				c3.419,0,5.965,0.404,7.639,1.214c1.673,0.809,2.852,1.838,3.533,3.082c0.683,1.247,1.024,3.533,1.024,6.863l-0.083,8.948
				c0,2.546,0.123,4.424,0.368,5.634c0.247,1.21,0.705,2.505,1.378,3.888h-7.584c-0.201-0.511-0.446-1.266-0.736-2.267
				c-0.128-0.453-0.218-0.754-0.274-0.899c-1.31,1.274-2.71,2.228-4.2,2.864c-1.492,0.636-3.084,0.956-4.775,0.956
				c-2.983,0-5.333-0.81-7.053-2.428c-1.718-1.618-2.577-3.665-2.577-6.14c0-1.637,0.39-3.096,1.172-4.378
				c0.781-1.282,1.877-2.265,3.288-2.947c1.41-0.682,3.441-1.276,6.098-1.787c3.583-0.671,6.066-1.3,7.449-1.882v-0.764
				c0-1.475-0.365-2.524-1.091-3.152c-0.729-0.626-2.102-0.941-4.121-0.941c-1.365,0-2.427,0.271-3.191,0.806
				C-268.202-77.301-268.82-76.359-269.293-75.014z M-259.034-68.793c-0.982,0.327-2.539,0.719-4.667,1.172
				c-2.128,0.454-3.519,0.9-4.173,1.338c-1.001,0.709-1.501,1.608-1.501,2.7c0,1.074,0.399,2.001,1.2,2.784
				c0.8,0.782,1.818,1.173,3.056,1.173c1.381,0,2.701-0.456,3.955-1.365c0.929-0.69,1.537-1.535,1.829-2.536
				c0.2-0.654,0.301-1.901,0.301-3.738V-68.793z"/>
			<path fill="#1D74CB" d="M-235.981-54.879l-11.677-28.975h8.049l5.457,14.788l1.581,4.936c0.419-1.253,0.684-2.08,0.793-2.48
				c0.255-0.819,0.527-1.638,0.816-2.455l5.514-14.788h7.884l-11.514,28.975H-235.981z"/>
			<path fill="#1D74CB" d="M-212.873-54.879v-28.975h7.667v28.975H-212.873z"/>
			<path fill="#1D74CB" d="M-172.083-75.286l-7.559,1.363c-0.256-1.509-0.833-2.647-1.732-3.412c-0.9-0.763-2.069-1.144-3.506-1.144
				c-1.909,0-3.433,0.658-4.57,1.978c-1.138,1.318-1.704,3.524-1.704,6.616c0,3.437,0.576,5.864,1.731,7.283s2.705,2.13,4.652,2.13
				c1.454,0,2.646-0.415,3.572-1.242c0.931-0.828,1.585-2.25,1.965-4.271l7.529,1.283c-0.78,3.456-2.281,6.066-4.501,7.831
				c-2.219,1.765-5.191,2.646-8.92,2.646c-4.239,0-7.617-1.337-10.136-4.012c-2.52-2.672-3.779-6.373-3.779-11.104
				c0-4.782,1.265-8.508,3.792-11.171c2.527-2.665,5.948-3.997,10.259-3.997c3.528,0,6.334,0.76,8.418,2.277
				C-174.491-80.711-172.994-78.397-172.083-75.286z"/>
			<path fill="#1D74CB" d="M-149.495-64.101l7.64,1.281c-0.982,2.803-2.534,4.936-4.652,6.397c-2.118,1.467-4.77,2.197-7.952,2.197
				c-5.038,0-8.769-1.645-11.187-4.938c-1.909-2.638-2.863-5.966-2.863-9.987c0-4.802,1.253-8.563,3.763-11.28
				c2.51-2.72,5.685-4.078,9.523-4.078c4.311,0,7.71,1.423,10.203,4.27c2.491,2.847,3.685,7.207,3.575,13.081h-19.208
				c0.053,2.273,0.673,4.043,1.855,5.308c1.182,1.264,2.655,1.896,4.419,1.896c1.199,0,2.211-0.328,3.028-0.983
				C-150.531-61.591-149.914-62.645-149.495-64.101z M-149.058-71.85c-0.055-2.218-0.629-3.904-1.72-5.06
				c-1.092-1.156-2.419-1.734-3.982-1.734c-1.674,0-3.056,0.611-4.146,1.829c-1.092,1.219-1.63,2.873-1.611,4.965H-149.058z"/>
		</g>
	</g>
	<g>
		<path fill="#1D74CB" d="M-208.979-111.038c-5.611-0.073-10.22,4.415-10.293,10.031c-0.073,5.611,4.417,10.221,10.031,10.292
			c5.611,0.073,10.221-4.417,10.294-10.03C-198.876-106.358-203.364-110.967-208.979-111.038z M-211.202-94.519l-0.018-4.232
			l-4.233,0.019l-0.016-4.238l4.235-0.014l-0.018-4.234l4.233-0.016L-207-103l4.233-0.017l0.017,4.232l-4.234,0.019l0.017,4.232
			L-211.202-94.519z"/>
	</g>
	<g>
		<g>
			<path fill="#FFFFFF" d="M-163.085-249.104v4.644h-3.98v8.874c0,1.797,0.038,2.843,0.114,3.141
				c0.075,0.297,0.248,0.544,0.519,0.735c0.269,0.194,0.597,0.292,0.984,0.292c0.539,0,1.32-0.188,2.344-0.561l0.497,4.52
				c-1.355,0.581-2.89,0.871-4.604,0.871c-1.05,0-1.998-0.177-2.84-0.528c-0.844-0.354-1.462-0.81-1.855-1.368
				c-0.395-0.561-0.667-1.318-0.818-2.271c-0.125-0.678-0.188-2.046-0.188-4.106v-9.599h-2.675v-4.644h2.675v-4.374l5.847-3.4v7.774
				H-163.085z"/>
			<path fill="#FFFFFF" d="M-146.291-234.094l5.805,0.975c-0.746,2.13-1.925,3.75-3.535,4.861c-1.61,1.114-3.625,1.67-6.043,1.67
				c-3.829,0-6.663-1.25-8.5-3.752c-1.452-2.005-2.177-4.534-2.177-7.59c0-3.648,0.952-6.506,2.86-8.572
				c1.907-2.066,4.319-3.1,7.235-3.1c3.276,0,5.86,1.082,7.754,3.245s2.8,5.478,2.717,9.941h-14.596
				c0.04,1.727,0.511,3.071,1.41,4.032c0.897,0.961,2.018,1.44,3.357,1.44c0.912,0,1.68-0.248,2.302-0.746
				C-147.079-232.186-146.61-232.986-146.291-234.094z M-145.96-239.981c-0.041-1.686-0.478-2.968-1.307-3.846
				s-1.837-1.317-3.025-1.317c-1.272,0-2.322,0.465-3.151,1.39c-0.829,0.927-1.238,2.184-1.224,3.773H-145.96z"/>
			<path fill="#FFFFFF" d="M-135.428-227.086v-30.394h5.827v30.394H-135.428z"/>
			<path fill="#FFFFFF" d="M-119.276-242.387l-5.287-0.953c0.594-2.129,1.617-3.705,3.068-4.728s3.607-1.534,6.469-1.534
				c2.598,0,4.532,0.309,5.805,0.923c1.271,0.615,2.167,1.397,2.685,2.343c0.52,0.947,0.778,2.685,0.778,5.215l-0.063,6.801
				c0,1.935,0.094,3.361,0.279,4.28c0.188,0.92,0.536,1.903,1.048,2.954h-5.764c-0.153-0.387-0.339-0.961-0.56-1.721
				c-0.097-0.346-0.166-0.574-0.208-0.684c-0.996,0.968-2.06,1.692-3.192,2.176c-1.134,0.483-2.343,0.727-3.629,0.727
				c-2.267,0-4.053-0.615-5.359-1.845c-1.306-1.229-1.958-2.785-1.958-4.665c0-1.244,0.296-2.354,0.891-3.328
				c0.594-0.974,1.427-1.721,2.499-2.239c1.07-0.518,2.614-0.971,4.633-1.357c2.723-0.511,4.61-0.988,5.661-1.431v-0.58
				c0-1.121-0.277-1.918-0.83-2.396c-0.553-0.477-1.597-0.716-3.131-0.716c-1.036,0-1.845,0.205-2.425,0.612
				C-118.447-244.124-118.917-243.409-119.276-242.387z M-111.48-237.659c-0.747,0.249-1.929,0.546-3.546,0.891
				c-1.617,0.346-2.674,0.685-3.172,1.017c-0.761,0.539-1.141,1.223-1.141,2.052c0,0.816,0.303,1.521,0.912,2.116
				c0.607,0.595,1.382,0.891,2.322,0.891c1.05,0,2.053-0.346,3.006-1.036c0.706-0.525,1.168-1.167,1.39-1.928
				c0.151-0.498,0.229-1.445,0.229-2.841V-237.659z"/>
			<path fill="#FFFFFF" d="M-93.962-227.086l-8.874-22.018h6.117l4.146,11.237l1.202,3.752c0.317-0.953,0.519-1.582,0.602-1.887
				c0.193-0.622,0.4-1.244,0.621-1.865l4.189-11.237h5.991l-8.75,22.018H-93.962z"/>
			<path fill="#FFFFFF" d="M-76.402-227.086v-22.018h5.826v22.018H-76.402z"/>
			<path fill="#FFFFFF" d="M-45.405-242.594l-5.744,1.037c-0.194-1.147-0.632-2.012-1.315-2.593
				c-0.686-0.58-1.574-0.869-2.665-0.869c-1.451,0-2.608,0.5-3.473,1.502s-1.296,2.679-1.296,5.028c0,2.612,0.438,4.457,1.316,5.535
				c0.878,1.077,2.056,1.618,3.535,1.618c1.105,0,2.012-0.315,2.716-0.944c0.706-0.629,1.203-1.71,1.492-3.245l5.723,0.975
				c-0.594,2.627-1.734,4.61-3.421,5.951s-3.946,2.011-6.779,2.011c-3.221,0-5.788-1.016-7.702-3.049
				c-1.915-2.03-2.871-4.843-2.871-8.438c0-3.635,0.96-6.465,2.882-8.489c1.92-2.024,4.52-3.038,7.795-3.038
				c2.682,0,4.813,0.578,6.396,1.731C-47.234-246.715-46.098-244.957-45.405-242.594z"/>
			<path fill="#FFFFFF" d="M-28.24-234.094l5.805,0.975c-0.746,2.13-1.925,3.75-3.535,4.861c-1.609,1.114-3.625,1.67-6.043,1.67
				c-3.829,0-6.663-1.25-8.5-3.752c-1.451-2.005-2.177-4.534-2.177-7.59c0-3.648,0.953-6.506,2.86-8.572s4.319-3.1,7.236-3.1
				c3.275,0,5.859,1.082,7.754,3.245c1.893,2.163,2.799,5.478,2.717,9.941h-14.596c0.04,1.727,0.51,3.071,1.409,4.032
				c0.898,0.961,2.018,1.44,3.357,1.44c0.912,0,1.681-0.248,2.302-0.746C-29.028-232.186-28.559-232.986-28.24-234.094z
				 M-27.908-239.981c-0.042-1.686-0.478-2.968-1.307-3.846c-0.83-0.878-1.838-1.317-3.026-1.317c-1.272,0-2.322,0.465-3.151,1.39
				c-0.829,0.927-1.238,2.184-1.224,3.773H-27.908z"/>
		</g>
	</g>
	<path fill="#C1C1C1" d="M-70.528-269.492c-0.22-0.872-0.311-1.792-0.255-2.737c0.025-0.408,0.079-0.808,0.155-1.2
		c-5.466-0.823-11.242,0.688-15.701,4.644c-0.798,0.708-0.871,1.927-0.164,2.726c0.709,0.797,1.928,0.871,2.727,0.163
		C-80.015-269.224-75.096-270.39-70.528-269.492z M-69.017-277.065c0.984-1.322,2.32-2.361,3.86-2.983
		c-8.812-2.858-18.862-1.108-26.297,5.483c-0.797,0.707-0.871,1.929-0.163,2.726c0.707,0.798,1.927,0.871,2.726,0.164
		C-83.259-276.671-75.873-278.419-69.017-277.065z M-76.081-257.229c-1.595,1.414-1.742,3.856-0.327,5.452
		c1.416,1.596,3.854,1.741,5.452,0.327c1.596-1.415,1.742-3.856,0.327-5.452C-72.044-258.497-74.484-258.643-76.081-257.229z
		 M-64.851-262.025c-4.244-4.787-11.566-5.227-16.354-0.982c-0.799,0.708-0.872,1.928-0.163,2.727
		c0.706,0.797,1.927,0.87,2.725,0.163c3.191-2.83,8.072-2.536,10.904,0.655c0.706,0.798,1.927,0.87,2.725,0.164
		C-64.215-260.008-64.143-261.229-64.851-262.025z"/>
	<path fill="#FFFFFF" d="M-61.324-279.398c-4.258-0.256-7.917,2.988-8.173,7.246s2.988,7.918,7.246,8.172
		c4.258,0.256,7.916-2.988,8.172-7.245C-53.823-275.485-57.066-279.144-61.324-279.398z M-63.604-266.938l0.138-3.213l-3.214-0.14
		l0.14-3.217l3.215,0.142l0.139-3.215l3.215,0.14l-0.139,3.214l3.214,0.14l-0.139,3.214l-3.214-0.139l-0.141,3.214L-63.604-266.938z
		"/>
	<path fill="#FFFFFF" d="M127.595,19.402c-3.193-0.192-5.938,2.241-6.13,5.434c-0.191,3.193,2.242,5.938,5.436,6.129
		c3.193,0.192,5.937-2.241,6.129-5.434C133.221,22.337,130.788,19.593,127.595,19.402z M125.886,28.748l0.103-2.41l-2.41-0.104
		l0.105-2.413l2.41,0.106l0.104-2.412l2.411,0.105l-0.104,2.411l2.41,0.105l-0.104,2.41l-2.41-0.104l-0.105,2.411L125.886,28.748z"
		/>
	<text transform="matrix(1 0 0 1 -328.2334 -31.9844)" fill="#D0D2D3" font-family="'Arial-BoldMT'" font-size="18">Online Medical Care</text>
	<g>
		<g>
			<path fill="#FFFFFF" d="M-833.877-86.094v6.11h-5.239v11.678c0,2.365,0.05,3.741,0.15,4.133s0.328,0.717,0.683,0.969
				c0.354,0.256,0.786,0.383,1.296,0.383c0.709,0,1.736-0.246,3.083-0.737l0.655,5.947c-1.784,0.765-3.802,1.146-6.058,1.146
				c-1.381,0-2.628-0.232-3.737-0.695c-1.11-0.465-1.924-1.064-2.441-1.8c-0.52-0.738-0.878-1.734-1.078-2.987
				c-0.166-0.893-0.247-2.693-0.247-5.404v-12.632h-3.52v-6.11h3.52v-5.757l7.694-4.473v10.229H-833.877z"/>
			<path fill="#FFFFFF" d="M-811.778-66.341l7.639,1.281c-0.982,2.803-2.533,4.936-4.652,6.397
				c-2.119,1.467-4.771,2.197-7.953,2.197c-5.039,0-8.768-1.645-11.186-4.938c-1.909-2.638-2.864-5.966-2.864-9.987
				c0-4.802,1.254-8.563,3.764-11.28c2.51-2.72,5.684-4.078,9.522-4.078c4.311,0,7.711,1.423,10.204,4.27
				c2.492,2.847,3.685,7.207,3.575,13.081h-19.207c0.053,2.273,0.672,4.043,1.855,5.308c1.182,1.264,2.655,1.896,4.418,1.896
				c1.201,0,2.21-0.328,3.029-0.983C-812.815-63.831-812.198-64.885-811.778-66.341z M-811.342-74.09
				c-0.054-2.218-0.628-3.904-1.72-5.06c-1.091-1.156-2.417-1.734-3.981-1.734c-1.674,0-3.055,0.611-4.146,1.829
				c-1.091,1.219-1.629,2.873-1.611,4.965H-811.342z"/>
			<path fill="#FFFFFF" d="M-797.482-57.119v-39.997h7.667v39.997H-797.482z"/>
			<path fill="#FFFFFF" d="M-776.229-77.254l-6.958-1.256c0.781-2.801,2.129-4.874,4.037-6.221c1.91-1.345,4.748-2.018,8.514-2.018
				c3.418,0,5.965,0.404,7.639,1.214c1.674,0.809,2.852,1.838,3.533,3.082c0.683,1.247,1.023,3.533,1.023,6.863l-0.082,8.948
				c0,2.546,0.123,4.424,0.367,5.634c0.247,1.21,0.705,2.505,1.379,3.888h-7.584c-0.201-0.511-0.447-1.266-0.736-2.267
				c-0.129-0.453-0.219-0.754-0.274-0.899c-1.31,1.274-2.71,2.228-4.2,2.864c-1.492,0.636-3.084,0.956-4.775,0.956
				c-2.983,0-5.334-0.81-7.053-2.428s-2.577-3.665-2.577-6.14c0-1.637,0.39-3.096,1.172-4.378c0.781-1.282,1.878-2.265,3.288-2.947
				c1.41-0.682,3.441-1.276,6.098-1.787c3.582-0.671,6.066-1.3,7.449-1.882v-0.764c0-1.475-0.365-2.524-1.092-3.152
				c-0.729-0.626-2.102-0.941-4.12-0.941c-1.364,0-2.427,0.271-3.191,0.806C-775.138-79.541-775.756-78.6-776.229-77.254z
				 M-765.97-71.033c-0.982,0.327-2.539,0.719-4.666,1.172c-2.129,0.454-3.52,0.9-4.174,1.338c-1.001,0.709-1.502,1.608-1.502,2.7
				c0,1.074,0.4,2.001,1.201,2.784c0.8,0.782,1.817,1.173,3.056,1.173c1.381,0,2.701-0.456,3.955-1.365
				c0.929-0.69,1.537-1.535,1.829-2.536c0.199-0.654,0.301-1.901,0.301-3.738V-71.033z"/>
			<path fill="#FFFFFF" d="M-742.917-57.119l-11.677-28.975h8.049l5.457,14.788l1.581,4.936c0.419-1.253,0.684-2.08,0.793-2.48
				c0.255-0.819,0.527-1.638,0.816-2.455l5.514-14.788h7.884l-11.514,28.975H-742.917z"/>
			<path fill="#FFFFFF" d="M-719.809-57.119v-28.975h7.667v28.975H-719.809z"/>
			<path fill="#FFFFFF" d="M-679.019-77.526l-7.559,1.363c-0.256-1.509-0.833-2.647-1.732-3.412c-0.9-0.763-2.069-1.144-3.506-1.144
				c-1.909,0-3.433,0.658-4.57,1.978c-1.138,1.318-1.704,3.524-1.704,6.616c0,3.437,0.576,5.864,1.731,7.283s2.705,2.13,4.652,2.13
				c1.454,0,2.646-0.415,3.572-1.242c0.931-0.828,1.585-2.25,1.965-4.271l7.529,1.283c-0.78,3.456-2.281,6.066-4.501,7.831
				c-2.219,1.765-5.191,2.646-8.92,2.646c-4.239,0-7.617-1.337-10.136-4.012c-2.52-2.672-3.779-6.373-3.779-11.104
				c0-4.782,1.265-8.508,3.792-11.171c2.527-2.665,5.948-3.997,10.259-3.997c3.528,0,6.334,0.76,8.418,2.277
				C-681.427-82.951-679.93-80.638-679.019-77.526z"/>
			<path fill="#FFFFFF" d="M-656.431-66.341l7.64,1.281c-0.982,2.803-2.534,4.936-4.652,6.397c-2.118,1.467-4.77,2.197-7.952,2.197
				c-5.038,0-8.769-1.645-11.187-4.938c-1.909-2.638-2.863-5.966-2.863-9.987c0-4.802,1.253-8.563,3.763-11.28
				c2.51-2.72,5.685-4.078,9.523-4.078c4.311,0,7.71,1.423,10.203,4.27c2.491,2.847,3.685,7.207,3.575,13.081h-19.208
				c0.053,2.273,0.673,4.043,1.855,5.308c1.182,1.264,2.655,1.896,4.419,1.896c1.199,0,2.211-0.328,3.028-0.983
				C-657.467-63.831-656.85-64.885-656.431-66.341z M-655.993-74.09c-0.055-2.218-0.629-3.904-1.72-5.06
				c-1.092-1.156-2.419-1.734-3.982-1.734c-1.674,0-3.056,0.611-4.146,1.829c-1.092,1.219-1.63,2.873-1.611,4.965H-655.993z"/>
		</g>
	</g>
	<text transform="matrix(1 0 0 1 20.8311 76.7754)" fill="#FFFFFF" font-family="'Arial-BoldMT'" font-size="16">Online Medical Care</text>
	<g>
		<g>
			<path fill="#FFFFFF" d="M-502.069,106.025v6.11h-5.239v11.678c0,2.365,0.05,3.741,0.15,4.133s0.328,0.717,0.683,0.969
				c0.354,0.256,0.786,0.383,1.296,0.383c0.709,0,1.736-0.246,3.083-0.737l0.655,5.947c-1.784,0.765-3.802,1.146-6.058,1.146
				c-1.381,0-2.628-0.232-3.737-0.695c-1.11-0.465-1.924-1.064-2.441-1.8c-0.52-0.738-0.878-1.734-1.078-2.987
				c-0.166-0.893-0.247-2.693-0.247-5.404v-12.632h-3.52v-6.11h3.52v-5.757l7.694-4.473v10.229H-502.069z"/>
			<path fill="#FFFFFF" d="M-479.97,125.778l7.639,1.281c-0.982,2.803-2.533,4.936-4.652,6.397
				c-2.118,1.467-4.771,2.197-7.952,2.197c-5.039,0-8.768-1.645-11.186-4.938c-1.909-2.638-2.864-5.966-2.864-9.987
				c0-4.802,1.254-8.563,3.764-11.28c2.51-2.72,5.684-4.078,9.521-4.078c4.312,0,7.712,1.423,10.204,4.27
				c2.491,2.847,3.685,7.207,3.575,13.081h-19.207c0.053,2.273,0.672,4.043,1.855,5.308c1.182,1.264,2.654,1.896,4.418,1.896
				c1.201,0,2.211-0.328,3.029-0.983C-481.007,128.288-480.39,127.234-479.97,125.778z M-479.534,118.029
				c-0.054-2.218-0.627-3.904-1.719-5.06c-1.092-1.156-2.418-1.734-3.982-1.734c-1.674,0-3.055,0.611-4.146,1.829
				c-1.091,1.219-1.629,2.873-1.611,4.965H-479.534z"/>
			<path fill="#FFFFFF" d="M-465.674,135V95.003h7.667V135H-465.674z"/>
			<path fill="#FFFFFF" d="M-444.42,114.865l-6.958-1.256c0.781-2.801,2.129-4.874,4.037-6.221c1.91-1.345,4.748-2.018,8.514-2.018
				c3.418,0,5.965,0.404,7.639,1.214c1.674,0.809,2.852,1.838,3.533,3.082c0.683,1.247,1.023,3.533,1.023,6.863l-0.082,8.948
				c0,2.546,0.123,4.424,0.367,5.634c0.247,1.21,0.705,2.505,1.379,3.888h-7.584c-0.201-0.511-0.447-1.266-0.736-2.267
				c-0.129-0.453-0.219-0.754-0.274-0.899c-1.31,1.274-2.71,2.228-4.2,2.864c-1.492,0.636-3.084,0.956-4.775,0.956
				c-2.983,0-5.334-0.81-7.053-2.428s-2.577-3.665-2.577-6.14c0-1.637,0.39-3.096,1.172-4.378c0.781-1.282,1.878-2.265,3.288-2.947
				c1.41-0.682,3.441-1.276,6.098-1.787c3.582-0.671,6.066-1.3,7.449-1.882v-0.764c0-1.475-0.365-2.524-1.092-3.152
				c-0.729-0.626-2.102-0.941-4.12-0.941c-1.364,0-2.427,0.271-3.191,0.806C-443.329,112.578-443.947,113.52-444.42,114.865z
				 M-434.161,121.086c-0.982,0.327-2.539,0.719-4.666,1.172c-2.129,0.454-3.52,0.9-4.174,1.338c-1.001,0.709-1.502,1.608-1.502,2.7
				c0,1.074,0.4,2.001,1.201,2.784c0.8,0.782,1.817,1.173,3.056,1.173c1.381,0,2.701-0.456,3.955-1.365
				c0.929-0.69,1.537-1.535,1.829-2.536c0.199-0.654,0.301-1.901,0.301-3.738V121.086z"/>
			<path fill="#FFFFFF" d="M-411.108,135l-11.677-28.975h8.049l5.457,14.788l1.581,4.936c0.419-1.253,0.684-2.08,0.793-2.48
				c0.255-0.819,0.527-1.638,0.816-2.455l5.514-14.788h7.884L-404.205,135H-411.108z"/>
			<path fill="#FFFFFF" d="M-388,135v-28.975h7.667V135H-388z"/>
			<path fill="#FFFFFF" d="M-347.21,114.593l-7.559,1.363c-0.256-1.509-0.833-2.647-1.732-3.412c-0.9-0.763-2.069-1.144-3.506-1.144
				c-1.909,0-3.433,0.658-4.57,1.978c-1.138,1.318-1.704,3.524-1.704,6.616c0,3.437,0.576,5.864,1.731,7.283s2.705,2.13,4.652,2.13
				c1.454,0,2.646-0.415,3.572-1.242c0.931-0.828,1.585-2.25,1.965-4.271l7.529,1.283c-0.78,3.456-2.281,6.066-4.501,7.831
				c-2.219,1.765-5.191,2.646-8.92,2.646c-4.239,0-7.617-1.337-10.136-4.012c-2.52-2.672-3.779-6.373-3.779-11.104
				c0-4.782,1.265-8.508,3.792-11.171c2.527-2.665,5.948-3.997,10.259-3.997c3.528,0,6.334,0.76,8.418,2.277
				C-349.618,109.168-348.121,111.481-347.21,114.593z"/>
			<path fill="#FFFFFF" d="M-324.622,125.778l7.64,1.281c-0.982,2.803-2.534,4.936-4.652,6.397c-2.118,1.467-4.77,2.197-7.952,2.197
				c-5.038,0-8.769-1.645-11.187-4.938c-1.909-2.638-2.863-5.966-2.863-9.987c0-4.802,1.253-8.563,3.763-11.28
				c2.51-2.72,5.685-4.078,9.523-4.078c4.311,0,7.71,1.423,10.203,4.27c2.491,2.847,3.685,7.207,3.575,13.081h-19.208
				c0.053,2.273,0.673,4.043,1.855,5.308c1.182,1.264,2.655,1.896,4.419,1.896c1.199,0,2.211-0.328,3.028-0.983
				C-325.658,128.288-325.041,127.234-324.622,125.778z M-324.185,118.029c-0.055-2.218-0.629-3.904-1.72-5.06
				c-1.092-1.156-2.419-1.734-3.982-1.734c-1.674,0-3.056,0.611-4.146,1.829c-1.092,1.219-1.63,2.873-1.611,4.965H-324.185z"/>
		</g>
	</g>
	<text transform="matrix(1 0 0 1 -503.3604 157.8945)" fill="#D0D2D3" font-family="'Arial-BoldMT'" font-size="18">Online Medical Care</text>
	<g>
		<path fill="#D0D2D3" d="M-363.849,71.214c-11.209-11.208-29.381-11.208-40.59,0c-0.8,0.801-0.8,2.099,0,2.899
			c0.801,0.801,2.1,0.801,2.9,0c9.606-9.607,25.183-9.607,34.789,0c0.801,0.801,2.1,0.801,2.9,0S-363.048,72.015-363.849,71.214z"/>
		<path fill="#D0D2D3" d="M-369.647,77.012c-8.006-8.006-20.986-8.006-28.992,0c-0.801,0.801-0.801,2.1,0,2.899
			c0.801,0.801,2.099,0.801,2.899,0c6.404-6.404,16.789-6.404,23.193,0c0.801,0.801,2.099,0.801,2.899,0
			C-368.847,79.111-368.847,77.813-369.647,77.012z"/>
		<path fill="#D0D2D3" d="M-375.446,82.811c-4.803-4.803-12.592-4.803-17.395,0c-0.801,0.801-0.801,2.099,0,2.898
			c0.801,0.801,2.099,0.801,2.898,0c3.203-3.201,8.395-3.201,11.598,0c0.8,0.801,2.098,0.801,2.898,0.001
			C-374.646,84.909-374.646,83.611-375.446,82.811z"/>
	</g>
	<path fill="#FFFFFF" d="M-382.642,88.754c-3.495-0.21-6.499,2.453-6.709,5.949c-0.21,3.495,2.454,6.498,5.949,6.708
		s6.499-2.454,6.709-5.948C-376.482,91.967-379.146,88.963-382.642,88.754z M-384.513,98.983l0.114-2.638l-2.64-0.114l0.115-2.641
		l2.64,0.116l0.114-2.641l2.639,0.115l-0.114,2.639l2.639,0.115l-0.113,2.639l-2.64-0.114l-0.115,2.639L-384.513,98.983z"/>
	<g>
		<path fill="#D0D2D3" d="M-362.849,71.214c-11.209-11.208-29.381-11.208-40.59,0c-0.8,0.801-0.8,2.099,0,2.899
			c0.801,0.801,2.1,0.801,2.9,0c9.606-9.607,25.183-9.607,34.789,0c0.801,0.801,2.1,0.801,2.9,0S-362.048,72.015-362.849,71.214z"/>
		<path fill="#D0D2D3" d="M-368.647,77.012c-8.006-8.006-20.986-8.006-28.992,0c-0.801,0.801-0.801,2.1,0,2.899
			c0.801,0.801,2.099,0.801,2.899,0c6.404-6.404,16.789-6.404,23.193,0c0.801,0.801,2.099,0.801,2.899,0
			C-367.847,79.111-367.847,77.813-368.647,77.012z"/>
		<path fill="#D0D2D3" d="M-374.446,82.811c-4.803-4.803-12.592-4.803-17.395,0c-0.801,0.801-0.801,2.099,0,2.898
			c0.801,0.801,2.099,0.801,2.898,0c3.203-3.201,8.395-3.201,11.598,0c0.8,0.801,2.098,0.801,2.898,0.001
			C-373.646,84.909-373.646,83.611-374.446,82.811z"/>
	</g>
	<g>
		<g>
			<path fill="#FFFFFF" d="M204.22,41.398c0-16.318-13.228-29.545-29.545-29.545c-1.632,0-2.955,1.323-2.955,2.955
				c0.001,1.631,1.324,2.954,2.955,2.955c13.054,0,23.636,10.583,23.636,23.636c0.001,1.631,1.324,2.954,2.955,2.955
				C202.897,44.352,204.22,43.029,204.22,41.398z"/>
			<path fill="#FFFFFF" d="M192.402,41.398c0-9.791-7.937-17.728-17.728-17.728c-1.631,0-2.955,1.323-2.955,2.955
				c0,1.632,1.323,2.955,2.955,2.955c6.526,0,11.818,5.292,11.818,11.818c0,1.632,1.322,2.955,2.954,2.955
				S192.402,43.03,192.402,41.398z"/>
		</g>
	</g>
</g>
</svg>
